<svg id="Layer_1" enable-background="new 0 0 512 512" height="512" viewBox="0 0 512 512" width="512" xmlns="http://www.w3.org/2000/svg"><path d="m451 512h-345c-24.853 0-45-20.147-45-45v-422h30c0 8.276 6.724 15 15 15h195v151.978l30-20.01 30 20.01v-151.978h60c16.569 0 30 13.431 30 30z" fill="#766e6e"/><path d="m361 211.978-30-20.01-30 20.01v-151.978h-45v452h195v-422c0-16.569-13.431-30-30-30h-60z" fill="#5b5555"/><path d="m361 452h-210v-120h210z" fill="#ffe6b3"/><path d="m256 332h105v120h-105z" fill="#ffca80"/><path d="m391 268.022-60-39.99-60 39.99v-208.022h120z" fill="#ff641a"/><path d="m451 90h-345c-24.814 0-45-20.186-45-45s20.186-45 45-45h345z" fill="#d9f2ff"/><path d="m256 0h195v90h-195z" fill="#cdf"/></svg>