<?xml version="1.0"?>
<svg xmlns="http://www.w3.org/2000/svg" viewBox="0 0 64 64" width="512" height="512"><g id="Delivery-3" data-name="Delivery"><path d="M61,5H8.062L5.4,2.337A1,1,0,0,0,3.985,3.751L24.764,24.529,9.207,40.086,3.429,34.308a1,1,0,0,0-1.414,1.414L6,39.707V56a1,1,0,0,0,1,1H24.707L28.3,60.593a2.934,2.934,0,0,0,2.07.872h.078a2.944,2.944,0,0,0,2.1-.873,2.977,2.977,0,0,0,.631-.929,2.97,2.97,0,0,0,1.477.388,2.985,2.985,0,0,0,2.766-1.8,2.921,2.921,0,0,0,1.475.387,3.1,3.1,0,0,0,2.136-.872,3,3,0,0,0,.59-.837A3.013,3.013,0,0,0,45.41,57H61a1,1,0,0,0,1-1V6A1,1,0,0,0,61,5ZM38,7V17H30V7ZM8,55V41.707l.5.5a1,1,0,0,0,1.414,0l1.414-1.414.263.263a5.017,5.017,0,0,1,1.3,2.271l.176.679a7.009,7.009,0,0,0,1.824,3.181L22.707,55Zm35.547.636a1.034,1.034,0,0,1-.692-.286l-1.828-1.829h0a1,1,0,0,0-1.415,1.414,1,1,0,0,1,0,1.414.96.96,0,0,1-.722.287,1.019,1.019,0,0,1-.693-.286l-1.414-1.414A1,1,0,0,0,35.37,56.35l0,0a1,1,0,0,1,0,1.411,1.046,1.046,0,0,1-.72.287.859.859,0,0,1-.694-.287L32.542,56.35a1,1,0,1,0-1.415,1.414,1,1,0,0,1,0,1.414.923.923,0,0,1-.72.287.987.987,0,0,1-.694-.287l-13.4-13.406a5,5,0,0,1-1.3-2.271l-.177-.679a7.013,7.013,0,0,0-1.823-3.18l-.263-.263L23.349,28.772l1.008,1.007a2.994,2.994,0,0,0,1.449.8l5,1.148a15.028,15.028,0,0,1,8.621,5.6l5.11,6.786-.093.093a1.982,1.982,0,0,1-1.413.586h0a1.991,1.991,0,0,1-1.414-.587l-2.5-2.5a2.437,2.437,0,0,0-1.738-.722h0a2.516,2.516,0,0,0-1.766,4.292l8.583,8.583a1.083,1.083,0,0,1,.142,1.426h0A1.054,1.054,0,0,1,43.547,55.636ZM60,55H46.518a3.168,3.168,0,0,0-.914-2.559l-8.583-8.583a.509.509,0,0,1-.148-.358.542.542,0,0,1,.175-.386.459.459,0,0,1,.649,0l2.5,2.5a3.978,3.978,0,0,0,2.828,1.173h0a3.969,3.969,0,0,0,2.827-1.172l.707-.707a1,1,0,0,0,.092-1.309l-5.633-7.48a17.026,17.026,0,0,0-9.77-6.343l-5-1.147a1.006,1.006,0,0,1-.485-.269l-1.008-1.008,2.122-2.122a1,1,0,0,0,0-1.414L10.062,7H28V18a1,1,0,0,0,1,1H39a1,1,0,0,0,1-1V7H60Z"/><path d="M48,47h5a1,1,0,0,0,0-2H48a1,1,0,0,0,0,2Z"/><path d="M56,47h1a1,1,0,0,0,0-2H56a1,1,0,0,0,0,2Z"/><path d="M48,43h5a1,1,0,0,0,0-2H48a1,1,0,0,0,0,2Z"/><path d="M56,43h1a1,1,0,0,0,0-2H56a1,1,0,0,0,0,2Z"/><path d="M53,49H46a1,1,0,0,0,0,2h7a1,1,0,0,0,0-2Z"/><path d="M56,51h1a1,1,0,0,0,0-2H56a1,1,0,0,0,0,2Z"/></g></svg>
