<svg xmlns="http://www.w3.org/2000/svg" width="81.038" height="92.615" viewBox="0 0 81.038 92.615">
    <defs>
        <style>
            .cls-1{fill:#dce0eb}.cls-2{fill:#4b78ef}.cls-3{fill:rgba(75,120,239,.16)}.cls-4{fill:#cad1d8}.cls-5{fill:#fff}
        </style>
    </defs>
    <g id="jpeg" transform="translate(-147 -165)">
        <g id="Grupo_3087" data-name="Grupo 3087" transform="translate(11391 1924)">
            <g id="pdf" transform="translate(-11276 -1759)">
                <path id="Trazado_4354" d="M101.788 0A5.805 5.805 0 0 0 96 5.788v81.038a5.805 5.805 0 0 0 5.788 5.788h57.884a5.805 5.805 0 0 0 5.788-5.788V23.154L142.307 0z" class="cls-1" data-name="Trazado 4354" transform="translate(-52.423)"/>
                <path id="Trazado_4355" d="M357.788 23.154h17.365L352 0v17.365a5.805 5.805 0 0 0 5.788 5.789z" class="cls-2" data-name="Trazado 4355" transform="translate(-262.116)"/>
                <path id="Trazado_4356" d="M401.365 145.365L384 128h17.365z" class="cls-3" data-name="Trazado 4356" transform="translate(-288.328 -104.846)"/>
                <path id="Trazado_4357" d="M101.461 271.836a2.9 2.9 0 0 1-2.894 2.894H34.894A2.9 2.9 0 0 1 32 271.836v-28.942A2.9 2.9 0 0 1 34.894 240h63.673a2.9 2.9 0 0 1 2.894 2.894z" class="cls-2" data-name="Trazado 4357" transform="translate(0 -196.587)"/>
                <path id="Trazado_4361" d="M150.99 418.894H96v2.894h54.99a2.9 2.9 0 0 0 2.894-2.894V416a2.9 2.9 0 0 1-2.894 2.894z" class="cls-4" data-name="Trazado 4361" transform="translate(-52.423 -340.751)"/>
                <path id="Trazado_4367" d="M1.914-15.62v9.944c0 .572.11 2.266-.858 2.926a2.408 2.408 0 0 1-2.31.088 1.817 1.817 0 0 1-1.012-1.782c-.022-.946-.044-1.408-.814-1.848a1.632 1.632 0 0 0-1.5.044A1.992 1.992 0 0 0-5.368-4.4a4.612 4.612 0 0 0 2.31 4.158A6.7 6.7 0 0 0 2.9-.066c2.49-1.342 2.578-2.926 2.578-4.972V-15.62A1.828 1.828 0 0 0 3.7-17.6a1.854 1.854 0 0 0-1.786 1.98z" class="cls-5" data-name="Trazado 4367" transform="translate(42.368 69)"/>
                <path id="Trazado_4366" d="M-2.475-8.91v-5.61h1.518c1.012 0 3.212-.2 4.114 1.408a3.036 3.036 0 0 1 .088 2.75C2.321-8.734.8-8.91-.715-8.91zm-3.564-5.214V-1.87A1.828 1.828 0 0 0-4.257.11a1.816 1.816 0 0 0 1.782-1.98v-4.136h1.848c2 0 5.258-.022 6.754-2.662a6.942 6.942 0 0 0-.044-6.182 5.767 5.767 0 0 0-5.456-2.64h-3.52c-.7 0-2.024-.088-2.6.506-.612.638-.546 2.156-.546 2.86z" class="cls-5" data-name="Trazado 4366" transform="translate(57.041 69)"/>
                <path id="Trazado_4368" d="M4.818-6.534A4 4 0 0 1 3.256-3.52a4.168 4.168 0 0 1-4.2.726A5.228 5.228 0 0 1-4.07-6.578c-.418-1.914-.154-5.39 1.606-7.062a4.432 4.432 0 0 1 4.312-1.21 3.993 3.993 0 0 1 1.716.99 4.054 4.054 0 0 1 .616.86 4.094 4.094 0 0 0 .484.836 1.371 1.371 0 0 0 1.364.44 1.471 1.471 0 0 0 1.166-.968 3.412 3.412 0 0 0-.9-2.838c-2-2.354-5.368-2.574-7.238-2.31a7.468 7.468 0 0 0-5.92 4.75c-1.144 2.618-1.236 7.326.836 10.208A7.839 7.839 0 0 0 .748.352 7.254 7.254 0 0 0 7.26-4c.616-1.364 1.078-3.7.55-4.576-.506-.858-1.364-.77-3.058-.77H2.9c-.77 0-1.65.044-2.024.682a1.632 1.632 0 0 0 0 1.5c.462.748 1.5.638 2.6.638z" class="cls-5" data-name="Trazado 4368" transform="translate(87.667 69)"/>
            </g>
        </g>
        <path id="Trazado_4382" d="M-6.026-15.013V-4.1c0 .9-.11 2.2.593 2.833.549.527 1.559.439 2.723.439h6.852c1.735 0 2.108-.813 2.108-1.537 0-.747-.373-1.493-2.13-1.493h-6.588v-4.215H2.8c1.757 0 2.13-.813 2.13-1.559 0-.725-.373-1.471-2.108-1.471h-5.29v-4.151h6.434c1.757 0 2.13-.813 2.13-1.559 0-.725-.439-1.471-2.108-1.471h-6.7c-1.164 0-2.152-.088-2.7.439-.702.636-.614 1.932-.614 2.832z" class="cls-5" data-name="Trazado 4382" transform="translate(187 235)"/>
    </g>
</svg>
