<svg xmlns="http://www.w3.org/2000/svg" width="81.038" height="92.615" viewBox="0 0 81.038 92.615">
    <defs>
        <style>
            .cls-1{fill:#dce0eb}.cls-2{fill:#ce6a88}.cls-3{fill:rgba(206,106,136,.28)}.cls-4{fill:#fff}.cls-5{fill:#cad1d8}
        </style>
    </defs>
    <g id="pdf" transform="translate(-32)">
        <path id="Trazado_4354" d="M101.788 0A5.805 5.805 0 0 0 96 5.788v81.038a5.805 5.805 0 0 0 5.788 5.788h57.884a5.805 5.805 0 0 0 5.788-5.788V23.154L142.307 0z" class="cls-1" data-name="Trazado 4354" transform="translate(-52.423)"/>
        <path id="Trazado_4355" d="M357.788 23.154h17.365L352 0v17.365a5.805 5.805 0 0 0 5.788 5.789z" class="cls-2" data-name="Trazado 4355" transform="translate(-262.116)"/>
        <path id="Trazado_4356" d="M401.365 145.365L384 128h17.365z" class="cls-3" data-name="Trazado 4356" transform="translate(-288.328 -104.846)"/>
        <path id="Trazado_4357" d="M101.461 271.836a2.9 2.9 0 0 1-2.894 2.894H34.894A2.9 2.9 0 0 1 32 271.836v-28.942A2.9 2.9 0 0 1 34.894 240h63.673a2.9 2.9 0 0 1 2.894 2.894z" class="cls-2" data-name="Trazado 4357" transform="translate(0 -196.587)"/>
        <g id="Grupo_3076" data-name="Grupo 3076" transform="translate(44.616 53.239)">
            <path id="Trazado_4358" d="M101.744 295.918a1.592 1.592 0 0 1 1.572-1.6h5.346a5.786 5.786 0 0 1 0 11.571H104.8v3.056a1.453 1.453 0 0 1-1.482 1.595 1.559 1.559 0 0 1-1.572-1.595zm3.053 1.317V303h3.864a2.885 2.885 0 0 0 0-5.765z" class="cls-4" data-name="Trazado 4358" transform="translate(-101.744 -294.32)"/>
            <path id="Trazado_4359" d="M189.422 311.486a1.448 1.448 0 0 1-1.6-1.433v-13.145a1.574 1.574 0 0 1 1.6-1.436h5.3c10.575 0 10.344 16.014.208 16.014zm1.458-13.186v10.367h3.841c6.249 0 6.526-10.367 0-10.367z" class="cls-4" data-name="Trazado 4359" transform="translate(-172.253 -295.264)"/>
            <path id="Trazado_4360" d="M290.163 298.469v3.679h5.9a1.79 1.79 0 0 1 1.667 1.641 1.608 1.608 0 0 1-1.667 1.389h-5.9v4.859a1.371 1.371 0 0 1-1.386 1.433 1.47 1.47 0 0 1-1.641-1.433v-13.145a1.463 1.463 0 0 1 1.641-1.436h8.123a1.443 1.443 0 0 1 1.621 1.436 1.6 1.6 0 0 1-1.621 1.574h-6.738z" class="cls-4" data-name="Trazado 4360" transform="translate(-253.601 -295.251)"/>
        </g>
        <path id="Trazado_4361" d="M150.99 418.894H96v2.894h54.99a2.9 2.9 0 0 0 2.894-2.894V416a2.9 2.9 0 0 1-2.894 2.894z" class="cls-5" data-name="Trazado 4361" transform="translate(-52.423 -340.751)"/>
    </g>
</svg>
