<svg height="470pt" viewBox="0 -3 470.68776 470" width="470pt" xmlns="http://www.w3.org/2000/svg"><path d="m437.601562 193.566406-13.859374-8 28-48.496094-13.855469-8 8-13.855468 20.800781 12c3.828125 2.210937 5.136719 7.101562 2.929688 10.929687zm0 0" fill="#ff7956"/><path d="m320 464.34375h-288c-17.671875 0-32-14.328125-32-32v-400c0-17.671875 14.328125-32 32-32h224l96 96v336c0 17.671875-14.328125 32-32 32zm0 0" fill="#e6e7e8"/><path d="m352 160.34375v272c0 17.671875-14.328125 32-32 32h-264zm0 0" fill="#e0e0e2"/><path d="m272 96.34375h80l-96-96v80c0 8.835938 7.164062 16 16 16zm0 0" fill="#898890"/><path d="m240 128.34375c0 35.347656-28.652344 64-64 64s-64-28.652344-64-64 28.652344-64 64-64 64 28.652344 64 64zm0 0" fill="#ffe477"/><path d="m176 64.34375c-2.675781.019531-5.347656.203125-8 .550781 31.992188 4.007813 55.996094 31.207031 55.996094 63.449219s-24.003906 59.441406-55.996094 63.449219c23.707031 3.128906 47.183594-7.21875 60.867188-26.832031 13.683593-19.613282 15.289062-45.214844 4.167968-66.386719-11.125-21.167969-33.121094-34.371094-57.035156-34.230469zm0 0" fill="#ffde55"/><path d="m406.144531 133.855469 24-41.566407-136 235.558594-1.074219 17.855469 13.859376 8 14.925781-9.855469 30.144531-52.214844v-3.289062 3.289062l81.855469-141.777343zm0 0" fill="#ffc477"/><path d="m433.855469 149.855469 24-41.566407zm0 0" fill="#78b9eb"/><path d="m433.855469 149.855469 24-41.597657c2.902343-4.953124 2.929687-11.085937.070312-16.0625-2.859375-4.980468-8.167969-8.042968-13.90625-8.03125-5.742187.011719-11.039062 3.101563-13.875 8.09375l-24 41.597657zm0 0" fill="#ffa733"/><path d="m64 216.34375h32v16h-32zm0 0" fill="#acabb1"/><path d="m112 216.34375h16v16h-16zm0 0" fill="#787680"/><g fill="#acabb1"><path d="m144 216.34375h144v16h-144zm0 0"/><path d="m64 264.34375h96v16h-96zm0 0"/><path d="m176 264.34375h32v16h-32zm0 0"/><path d="m224 264.34375h64v16h-64zm0 0"/><path d="m64 312.34375h64v16h-64zm0 0"/><path d="m144 312.34375h64v16h-64zm0 0"/></g><path d="m224 312.34375h48v16h-48zm0 0" fill="#787680"/><path d="m288 411.703125c-5.445312.09375-10.789062-1.476563-15.320312-4.496094-4.269532-2.964843-9.9375-2.964843-14.207032 0-9.332031 6-21.308594 6-30.640625 0-4.25-2.953125-9.890625-2.953125-14.144531 0-9.320312 6.007813-21.292969 6.007813-30.617188 0-2.035156-1.523437-4.527343-2.304687-7.070312-2.222656v-16c5.441406-.09375 10.78125 1.476563 15.304688 4.503906 4.253906 2.953125 9.894531 2.953125 14.152343 0 9.320313-6.007812 21.292969-6.007812 30.613281 0 2.042969 1.519531 4.539063 2.300781 7.082032 2.214844 2.546875.074219 5.046875-.707031 7.09375-2.222656 9.339844-5.996094 21.3125-5.996094 30.648437 0 2.054688 1.515625 4.554688 2.300781 7.105469 2.222656zm0 0" fill="#5aaae7"/><path d="m179.574219 121.183594c-6.773438-3.382813-11.574219-6.007813-11.574219-8.839844 0-4.417969 3.582031-8 8-8s8 3.582031 8 8h16c-.042969-10.132812-6.445312-19.148438-16-22.527344v-9.472656h-16v9.472656c-9.554688 3.378906-15.957031 12.394532-16 22.527344 0 12.945312 11.808594 18.847656 20.425781 23.160156 6.773438 3.382813 11.574219 6.007813 11.574219 8.839844 0 4.417969-3.582031 8-8 8s-8-3.582031-8-8h-16c.042969 10.132812 6.445312 19.148438 16 22.527344v9.472656h16v-9.472656c9.554688-3.378906 15.957031-12.394532 16-22.527344 0-12.945312-11.808594-18.847656-20.425781-23.160156zm0 0" fill="#ff7956"/><path d="m273.078125 380.351562 19.996094-34.644531 13.855469 8-19.996094 34.640625zm0 0" fill="#5aaae7"/></svg>