<svg id="Capa_1" enable-background="new 0 0 512 512" height="512" viewBox="0 0 512 512" width="512" xmlns="http://www.w3.org/2000/svg"><g><path d="m399.72 512h-358.542c-7.704 0-13.949-6.245-13.949-13.949v-358.542c0-7.702 6.244-13.946 13.946-13.946h358.545c7.702 0 13.946 6.244 13.946 13.946v358.545c0 7.702-6.244 13.946-13.946 13.946z" fill="#eab14d"/><path d="m399.72 125.564h-29.202c7.702 0 13.946 6.244 13.946 13.946v358.545c0 7.702-6.244 13.946-13.946 13.946h29.202c7.702 0 13.946-6.244 13.946-13.946v-358.546c0-7.702-6.244-13.945-13.946-13.945z" fill="#fdb441"/><path d="m413.666 445.37v-305.861c0-7.702-6.244-13.946-13.946-13.946h-352.609v351.747c0 7.704 6.245 13.949 13.949 13.949h352.606z" fill="#e7a52e"/><path d="m453.989 405.047v-306.721c0-7.702-6.244-13.946-13.946-13.946h-358.545c-7.702 0-13.946 6.244-13.946 13.946v358.542c0 7.704 6.245 13.949 13.949 13.949h306.717z" fill="#f6e266"/><path d="m440.043 84.381h-29.202c7.702 0 13.946 6.244 13.946 13.946v306.72 29.202l29.202-29.202v-306.721c0-7.702-6.244-13.945-13.946-13.945z" fill="#ffd064"/><path d="m453.989 405.047-65.771 65.77v-51.825c0-7.702 6.244-13.946 13.946-13.946h51.825z" fill="#ecbe6b"/><circle cx="406.268" cy="78.502" fill="#407093" r="78.502"/><path d="m449.279 70.776h-35.284v-35.284c0-4.267-3.459-7.726-7.726-7.726s-7.726 3.459-7.726 7.726v35.284h-35.284c-4.268 0-7.726 3.459-7.726 7.726s3.459 7.726 7.726 7.726h35.284v35.284c0 4.267 3.459 7.726 7.726 7.726s7.726-3.459 7.726-7.726v-35.283h35.284c4.268 0 7.726-3.459 7.726-7.726 0-4.268-3.458-7.727-7.726-7.727z" fill="#80b4fb"/><g><path d="m392.119 216.635h-262.696c-4.268 0-7.726-3.459-7.726-7.726s3.459-7.726 7.726-7.726h262.696c4.268 0 7.726 3.459 7.726 7.726 0 4.266-3.458 7.726-7.726 7.726z" fill="#e7a52e"/></g><g><path d="m392.119 286.679h-262.696c-4.268 0-7.726-3.459-7.726-7.726s3.459-7.726 7.726-7.726h262.696c4.268 0 7.726 3.459 7.726 7.726 0 4.266-3.458 7.726-7.726 7.726z" fill="#e7a52e"/></g><g><path d="m392.119 356.722h-262.696c-4.268 0-7.726-3.459-7.726-7.726s3.459-7.726 7.726-7.726h262.696c4.268 0 7.726 3.459 7.726 7.726s-3.458 7.726-7.726 7.726z" fill="#e7a52e"/></g></g></svg>